HIERARCHY
ROOT Hips
{
	OFFSET 0.000000 71.427986 0.000000
	CHANNELS 6 Xposition Yposition Zposition Xrotation Yrotation Zrotation
	JOINT Pelvis
	{
		OFFSET 0.000000 0.000000 0.000000
		CHANNELS 3 Xrotation Yrotation Zrotation
		JOINT LeftUpLeg
		{
			OFFSET 6.797100 -2.508499 -1.318700
			CHANNELS 3 Xrotation Yrotation Zrotation
			JOINT LeftLeg
			{
				OFFSET 0.069008 -29.241863 0.690200
				CHANNELS 3 Xrotation Yrotation Zrotation
				JOINT LeftFoot
				{
					OFFSET -0.069008 -29.568123 -0.266800
					CHANNELS 3 Xrotation Yrotation Zrotation
					JOINT LeftToeBase
					{
						OFFSET 3.145500 -8.631000 16.059900
						CHANNELS 3 Xrotation Yrotation Zrotation
						End Site
						{
							OFFSET 0.000000 18.501587 0.000000
						}
					}
				}
			}
			JOINT Left_ShortSleeve
			{
				OFFSET 0.265923 -10.480953 1.153800
				CHANNELS 3 Xrotation Yrotation Zrotation
				End Site
				{
					OFFSET 1.725763 19.823879 0.000000
				}
			}
		}
		JOINT RightUpLeg
		{
			OFFSET -6.797100 -2.508499 -1.318700
			CHANNELS 3 Xrotation Yrotation Zrotation
			JOINT RightLeg
			{
				OFFSET -0.082453 -29.241932 0.688000
				CHANNELS 3 Xrotation Yrotation Zrotation
				JOINT RightFoot
				{
					OFFSET 0.082453 -29.568058 -0.264600
					CHANNELS 3 Xrotation Yrotation Zrotation
					JOINT RightToeBase
					{
						OFFSET -3.115300 -8.682800 16.113400
						CHANNELS 3 Xrotation Yrotation Zrotation
						End Site
						{
							OFFSET 0.000000 18.567114 0.000000
						}
					}
				}
			}
			JOINT Right_ShortSleeve
			{
				OFFSET -0.265923 -10.480953 1.153800
				CHANNELS 3 Xrotation Yrotation Zrotation
				End Site
				{
					OFFSET -1.725766 19.823910 0.000000
				}
			}
		}
	}
	JOINT Spine
	{
		OFFSET 0.000000 13.368103 0.470500
		CHANNELS 3 Xrotation Yrotation Zrotation
		JOINT Spine1
		{
			OFFSET 0.147000 13.837402 0.538800
			CHANNELS 3 Xrotation Yrotation Zrotation
			JOINT Spine2
			{
				OFFSET 0.168000 16.242897 -1.435500
				CHANNELS 3 Xrotation Yrotation Zrotation
				JOINT Neck
				{
					OFFSET 0.217200 18.631500 -1.679100
					CHANNELS 3 Xrotation Yrotation Zrotation
					JOINT Head
					{
						OFFSET 0.000000 6.599396 1.385900
						CHANNELS 3 Xrotation Yrotation Zrotation
						JOINT Hat
						{
							OFFSET -0.532200 27.220596 -10.096100
							CHANNELS 3 Xrotation Yrotation Zrotation
							End Site
							{
								OFFSET 0.000000 22.029861 0.000000
							}
						}
						JOINT HairD
						{
							OFFSET -10.777400 17.437393 -1.325900
							CHANNELS 3 Xrotation Yrotation Zrotation
							JOINT HairD1
							{
								OFFSET -3.290299 -11.051193 1.062200
								CHANNELS 3 Xrotation Yrotation Zrotation
								End Site
								{
									OFFSET 0.000000 11.579437 0.000000
								}
							}
						}
						JOINT HairB
						{
							OFFSET -10.777400 17.437393 1.467900
							CHANNELS 3 Xrotation Yrotation Zrotation
							JOINT HairB1
							{
								OFFSET -1.561200 -12.956299 3.590200
								CHANNELS 3 Xrotation Yrotation Zrotation
								End Site
								{
									OFFSET 0.000000 13.534866 0.000000
								}
							}
						}
						JOINT HairA
						{
							OFFSET 9.713100 17.437393 1.467900
							CHANNELS 3 Xrotation Yrotation Zrotation
							JOINT HairA1
							{
								OFFSET 1.561200 -12.956299 3.590200
								CHANNELS 3 Xrotation Yrotation Zrotation
								End Site
								{
									OFFSET 0.000000 13.534866 0.000000
								}
							}
						}
						JOINT HairC
						{
							OFFSET 9.713100 17.437393 -1.325900
							CHANNELS 3 Xrotation Yrotation Zrotation
							JOINT HairC1
							{
								OFFSET 3.290300 -11.051193 1.062200
								CHANNELS 3 Xrotation Yrotation Zrotation
								End Site
								{
									OFFSET 0.000000 11.579437 0.000000
								}
							}
						}
					}
				}
				JOINT LeftShoulder
				{
					OFFSET 5.101800 15.108002 -2.763700
					CHANNELS 3 Xrotation Yrotation Zrotation
					JOINT LeftArm
					{
						OFFSET 9.825497 2.506317 -1.597400
						CHANNELS 3 Xrotation Yrotation Zrotation
						JOINT LeftForeArm
						{
							OFFSET 21.966244 0.000000 0.000000
							CHANNELS 3 Xrotation Yrotation Zrotation
							JOINT LeftHand
							{
								OFFSET 33.879036 0.000000 0.000000
								CHANNELS 3 Xrotation Yrotation Zrotation
								JOINT LeftHandThumb1
								{
									OFFSET 6.715286 -2.359680 3.363841
									CHANNELS 3 Xrotation Yrotation Zrotation
									JOINT LeftHandThumb2
									{
										OFFSET 2.507072 -1.447464 1.447461
										CHANNELS 3 Xrotation Yrotation Zrotation
										JOINT LeftHandThumb3
										{
											OFFSET 2.898338 -1.673355 1.673357
											CHANNELS 3 Xrotation Yrotation Zrotation
											End Site
											{
												OFFSET -0.295959 3.727692 -0.131651
											}
										}
									}
								}
								JOINT LeftHandIndex1
								{
									OFFSET 14.190811 -0.254547 3.840278
									CHANNELS 3 Xrotation Yrotation Zrotation
									JOINT LeftHandIndex2
									{
										OFFSET 3.551727 0.000000 -0.000000
										CHANNELS 3 Xrotation Yrotation Zrotation
										JOINT LeftHandIndex3
										{
											OFFSET 2.894196 0.000000 0.000000
											CHANNELS 3 Xrotation Yrotation Zrotation
											End Site
											{
												OFFSET -1.000603 2.690872 0.366626
											}
										}
									}
								}
								JOINT LeftHandMiddle1
								{
									OFFSET 13.776489 0.000000 0.000000
									CHANNELS 3 Xrotation Yrotation Zrotation
									JOINT LeftHandMiddle2
									{
										OFFSET 3.438232 0.000000 0.000000
										CHANNELS 3 Xrotation Yrotation Zrotation
										JOINT LeftHandMiddle3
										{
											OFFSET 3.691551 0.000000 0.000000
											CHANNELS 3 Xrotation Yrotation Zrotation
											End Site
											{
												OFFSET -1.082298 3.499527 0.457670
											}
										}
									}
								}
								JOINT LeftHandRing1
								{
									OFFSET 13.966164 -0.268127 -3.067488
									CHANNELS 3 Xrotation Yrotation Zrotation
									JOINT LeftHandRing2
									{
										OFFSET 3.162567 0.000000 0.000000
										CHANNELS 3 Xrotation Yrotation Zrotation
										JOINT LeftHandRing3
										{
											OFFSET 3.324348 0.000000 0.000000
											CHANNELS 3 Xrotation Yrotation Zrotation
											End Site
											{
												OFFSET -0.861900 3.184998 0.405154
											}
										}
									}
								}
								JOINT LeftHandPinky1
								{
									OFFSET 13.131393 -0.168503 -5.746925
									CHANNELS 3 Xrotation Yrotation Zrotation
									JOINT LeftHandPinky2
									{
										OFFSET 2.849182 0.000000 0.000000
										CHANNELS 3 Xrotation Yrotation Zrotation
										JOINT LeftHandPinky3
										{
											OFFSET 2.805038 0.000000 0.000000
											CHANNELS 3 Xrotation Yrotation Zrotation
											End Site
											{
												OFFSET -0.882500 2.642609 0.325652
											}
										}
									}
								}
							}
							JOINT Left_Sleeve
							{
								OFFSET 6.592125 -0.646545 0.805568
								CHANNELS 3 Xrotation Yrotation Zrotation
								End Site
								{
									OFFSET -0.000179 20.275787 -0.000000
								}
							}
						}
					}
				}
				JOINT RightShoulder
				{
					OFFSET -5.731700 15.108002 -2.763700
					CHANNELS 3 Xrotation Yrotation Zrotation
					JOINT RightArm
					{
						OFFSET -9.825497 2.506317 -1.597400
						CHANNELS 3 Xrotation Yrotation Zrotation
						JOINT RightForeArm
						{
							OFFSET -21.966242 0.000000 0.000000
							CHANNELS 3 Xrotation Yrotation Zrotation
							JOINT RightHand
							{
								OFFSET -33.879032 0.000000 0.000000
								CHANNELS 3 Xrotation Yrotation Zrotation
								JOINT RightHandThumb1
								{
									OFFSET -6.715286 -2.359680 3.363841
									CHANNELS 3 Xrotation Yrotation Zrotation
									JOINT RightHandThumb2
									{
										OFFSET -2.507072 -1.447464 1.447461
										CHANNELS 3 Xrotation Yrotation Zrotation
										JOINT RightHandThumb3
										{
											OFFSET -2.898338 -1.673355 1.673357
											CHANNELS 3 Xrotation Yrotation Zrotation
											End Site
											{
												OFFSET 0.295959 3.727692 -0.131651
											}
										}
									}
								}
								JOINT RightHandIndex1
								{
									OFFSET -14.190811 -0.254547 3.840278
									CHANNELS 3 Xrotation Yrotation Zrotation
									JOINT RightHandIndex2
									{
										OFFSET -3.551727 0.000000 -0.000000
										CHANNELS 3 Xrotation Yrotation Zrotation
										JOINT RightHandIndex3
										{
											OFFSET -2.894196 0.000000 0.000000
											CHANNELS 3 Xrotation Yrotation Zrotation
											End Site
											{
												OFFSET 1.000603 2.690872 0.366626
											}
										}
									}
								}
								JOINT RightHandMiddle1
								{
									OFFSET -13.776489 0.000000 0.000000
									CHANNELS 3 Xrotation Yrotation Zrotation
									JOINT RightHandMiddle2
									{
										OFFSET -3.438232 0.000000 0.000000
										CHANNELS 3 Xrotation Yrotation Zrotation
										JOINT RightHandMiddle3
										{
											OFFSET -3.691551 0.000000 0.000000
											CHANNELS 3 Xrotation Yrotation Zrotation
											End Site
											{
												OFFSET 1.082298 3.499527 0.457670
											}
										}
									}
								}
								JOINT RightHandRing1
								{
									OFFSET -13.966164 -0.268127 -3.067488
									CHANNELS 3 Xrotation Yrotation Zrotation
									JOINT RightHandRing2
									{
										OFFSET -3.162567 0.000000 0.000000
										CHANNELS 3 Xrotation Yrotation Zrotation
										JOINT RightHandRing3
										{
											OFFSET -3.324348 0.000000 0.000000
											CHANNELS 3 Xrotation Yrotation Zrotation
											End Site
											{
												OFFSET 0.861900 3.184998 0.405154
											}
										}
									}
								}
								JOINT RightHandPinky1
								{
									OFFSET -13.131393 -0.168503 -5.746925
									CHANNELS 3 Xrotation Yrotation Zrotation
									JOINT RightHandPinky2
									{
										OFFSET -2.849182 0.000000 0.000000
										CHANNELS 3 Xrotation Yrotation Zrotation
										JOINT RightHandPinky3
										{
											OFFSET -2.805038 0.000000 0.000000
											CHANNELS 3 Xrotation Yrotation Zrotation
											End Site
											{
												OFFSET 0.882500 2.642609 0.325652
											}
										}
									}
								}
							}
							JOINT Right_Sleeve
							{
								OFFSET -6.592125 -0.646545 0.805568
								CHANNELS 3 Xrotation Yrotation Zrotation
								End Site
								{
									OFFSET 0.000179 20.275787 -0.000000
								}
							}
						}
					}
				}
				JOINT Bind_Right_JacketString
				{
					OFFSET -3.534800 11.969597 7.200700
					CHANNELS 3 Xrotation Yrotation Zrotation
					JOINT Bind_Right_JacketString1
					{
						OFFSET -0.319900 -6.102600 2.794100
						CHANNELS 3 Xrotation Yrotation Zrotation
						End Site
						{
							OFFSET 0.000000 6.719452 0.000000
						}
					}
				}
				JOINT Bind_Left_JacketString
				{
					OFFSET 2.904800 11.969597 7.200700
					CHANNELS 3 Xrotation Yrotation Zrotation
					JOINT Bind_Left_JacketString1
					{
						OFFSET 0.364800 -5.904503 3.186800
						CHANNELS 3 Xrotation Yrotation Zrotation
						End Site
						{
							OFFSET 0.000000 6.719513 0.000000
						}
					}
				}
				JOINT HairE
				{
					OFFSET 5.915200 17.612701 -11.592200
					CHANNELS 3 Xrotation Yrotation Zrotation
					JOINT HairE1
					{
						OFFSET 0.289200 -7.171898 -1.284500
						CHANNELS 3 Xrotation Yrotation Zrotation
						End Site
						{
							OFFSET 0.000000 7.291756 0.000000
						}
					}
				}
				JOINT HairF
				{
					OFFSET -0.864800 17.612701 -11.592200
					CHANNELS 3 Xrotation Yrotation Zrotation
					JOINT HairF1
					{
						OFFSET 0.000000 -14.087097 -2.127501
						CHANNELS 3 Xrotation Yrotation Zrotation
						End Site
						{
							OFFSET 0.000000 14.246841 0.000000
						}
					}
				}
				JOINT HairG
				{
					OFFSET -8.087700 17.612701 -11.592200
					CHANNELS 3 Xrotation Yrotation Zrotation
					JOINT HairG1
					{
						OFFSET -0.293600 -6.081398 -0.910100
						CHANNELS 3 Xrotation Yrotation Zrotation
						End Site
						{
							OFFSET 0.000000 6.156120 0.000000
						}
					}
				}
			}
		}
	}
	JOINT Pouch
	{
		OFFSET 0.000000 4.394501 10.847300
		CHANNELS 3 Xrotation Yrotation Zrotation
		End Site
		{
			OFFSET 0.000000 21.880577 0.000000
		}
	}
	JOINT Bag
	{
		OFFSET -13.229000 4.813004 -0.593300
		CHANNELS 3 Xrotation Yrotation Zrotation
		End Site
		{
			OFFSET 0.000000 21.880577 0.000000
		}
	}
	JOINT OccupyGuyFacialAnim_Joint
	{
		OFFSET 1.000000 -70.206398 -1.655000
		CHANNELS 3 Xrotation Yrotation Zrotation
		End Site
		{
			OFFSET 0.000000 21.880577 0.000000
		}
	}
}
MOTION
Frames: 5
Frame Time: 0.033333
-0.040951 67.626678 0.017397 5.048656 -15.584005 0.097369 -0.000000 0.000000 -0.000000 -32.149653 3.468436 8.976382 31.582907 4.743435 1.578287 -3.826397 0.568799 -6.010032 -0.000000 0.000000 -0.000000 0.000002 0.000000 -0.000000 -15.059003 -10.959952 -11.516256 32.881740 -6.401526 1.589539 -20.354008 -2.430347 10.591160 -0.000000 -0.000000 0.000000 -0.000000 -0.000003 -0.000000 23.088000 4.340616 -0.217806 3.697003 1.244098 -0.843282 3.690533 1.310835 -0.841929 -12.696033 1.126173 2.284223 -14.088780 7.827324 -3.300980 0.000001 -0.000000 0.000000 0.000001 -0.000000 0.000000 0.000001 -0.000000 0.000000 0.000001 -0.000000 -0.000000 -0.000000 -0.000000 -0.000000 0.000001 -0.000000 -0.000000 -0.000000 -0.000000 -0.000000 0.000001 -0.000000 0.000000 0.000001 -0.000000 0.000000 7.812672 -20.949835 9.748565 -32.800416 -13.476405 -85.324984 0.000080 -43.166792 2.281607 -24.869709 -10.866698 -12.599133 -7.471924 1.860685 -7.166904 30.987025 27.310530 -4.510879 -0.000001 0.000003 0.000000 -4.707158 11.366752 -75.716533 -0.816417 3.073977 -46.874622 0.000001 -0.000000 0.000002 1.623359 16.580962 -84.691279 0.018010 0.022019 -72.884860 -0.000000 0.000000 -0.000001 -6.436869 23.133398 -89.739827 0.012870 0.975918 -51.002986 -0.000000 0.000002 0.000001 -17.080777 22.136862 -87.150092 0.011714 0.023183 -58.127273 -0.000002 -0.000001 -0.000001 0.000001 -0.000003 0.000000 13.916934 27.241166 -23.493037 -40.987938 17.668782 84.577625 0.000114 57.211836 -13.890534 -30.576015 16.096546 8.636247 9.347157 2.810557 -11.364501 16.169090 -43.266021 15.843563 -0.000002 -0.000001 -0.000001 17.076786 -0.396551 31.924328 -0.204411 -0.284208 112.811571 -0.000001 0.000001 0.000001 9.205488 -5.035906 102.738073 0.014981 -0.019206 61.018499 0.000001 -0.000001 -0.000001 5.569119 -8.935195 107.329087 0.547992 -0.005782 41.263724 0.000000 -0.000001 -0.000003 6.511242 -17.148247 98.227997 0.007415 -0.015747 43.845740 -0.000001 0.000003 -0.000001 0.000002 -0.000000 0.000002 0.000002 0.000000 0.000000 0.000002 -0.000000 0.000000 0.000002 0.000000 0.000000 0.000002 0.000000 0.000000 0.000002 0.000000 0.000000 0.000002 -0.000000 -0.000000 0.000002 0.000000 0.000000 0.000002 0.000000 0.000000 0.000002 0.000000 0.000000 0.000002 -0.000000 -0.000000 -0.000000 0.000000 -0.000000 -0.000000 0.000000 -0.000000 -0.000000 0.000000 -0.000000 
-0.058269 67.633743 0.007217 5.079667 -15.616522 0.091725 0.000001 -0.000001 0.000000 -32.152897 3.464915 9.004267 31.525913 4.771363 1.598520 -3.791904 0.568899 -6.037693 -0.000000 0.000000 -0.000000 -0.000000 0.000000 -0.000000 -15.077825 -10.941902 -11.479657 32.848579 -6.409465 1.595800 -20.315110 -2.426234 10.593266 -0.000000 0.000000 0.000000 0.000001 -0.000002 -0.000001 23.055881 4.337206 -0.227935 3.696730 1.242485 -0.842329 3.690253 1.310868 -0.841200 -12.723690 1.126043 2.298493 -14.055273 7.851069 -3.311668 -0.000001 -0.000000 -0.000000 -0.000001 -0.000000 -0.000000 -0.000001 -0.000000 -0.000000 -0.000001 -0.000000 -0.000000 -0.000002 -0.000000 -0.000000 -0.000001 -0.000000 -0.000000 -0.000002 -0.000000 -0.000000 -0.000001 -0.000000 -0.000000 -0.000001 -0.000000 -0.000000 7.817589 -20.877069 9.794157 -32.848279 -13.500731 -85.430831 -0.002337 -43.065220 2.294391 -24.817945 -11.027095 -12.599270 -7.471921 1.860688 -7.166903 30.987028 27.310523 -4.510879 -0.000004 0.000004 0.000003 -4.707155 11.366760 -75.716533 -0.816418 3.073979 -46.874618 -0.000000 0.000002 0.000002 1.623360 16.580967 -84.691272 0.018009 0.022016 -72.884860 0.000000 0.000000 -0.000001 -6.436872 23.133410 -89.739820 0.012873 0.975921 -51.002993 -0.000001 0.000001 0.000000 -17.080777 22.136868 -87.150092 0.011717 0.023183 -58.127273 -0.000000 0.000000 0.000003 -0.000001 0.000003 0.000001 13.922278 27.253013 -23.507114 -40.930605 17.638719 84.588034 0.000047 57.285019 -13.842671 -30.505933 16.195731 8.617630 9.347159 2.810555 -11.364502 16.169093 -43.266025 15.843571 -0.000001 -0.000003 0.000000 17.076788 -0.396553 31.924332 -0.204411 -0.284207 112.811571 -0.000001 0.000000 0.000000 9.205488 -5.035908 102.738073 0.014980 -0.019207 61.018499 0.000000 -0.000001 0.000001 5.569120 -8.935197 107.329094 0.547993 -0.005782 41.263724 0.000000 -0.000002 -0.000001 6.511244 -17.148247 98.227997 0.007412 -0.015746 43.845733 -0.000002 -0.000000 -0.000001 0.000000 0.000001 -0.000002 -0.000002 -0.000001 -0.000000 -0.000002 0.000000 -0.000000 -0.000002 -0.000001 -0.000000 -0.000002 -0.000001 -0.000000 -0.000002 -0.000001 -0.000000 -0.000002 0.000000 -0.000000 -0.000002 -0.000001 -0.000000 -0.000002 -0.000001 -0.000000 -0.000002 -0.000001 -0.000000 -0.000002 0.000000 -0.000000 0.000001 -0.000001 0.000000 0.000001 -0.000001 0.000000 0.000001 -0.000001 0.000000 
-0.075173 67.640625 -0.002654 5.111120 -15.649070 0.086256 0.000000 0.000002 -0.000000 -32.157678 3.461583 9.031952 31.471507 4.799801 1.618447 -3.758887 0.568993 -6.064056 0.000000 0.000000 0.000000 0.000000 -0.000001 -0.000000 -15.096950 -10.924227 -11.443857 32.815237 -6.416857 1.602255 -20.276728 -2.422229 10.595453 -0.000000 0.000000 -0.000000 -0.000000 -0.000001 0.000001 23.023830 4.333993 -0.238100 3.696471 1.240962 -0.841335 3.689979 1.311019 -0.840442 -12.751045 1.125869 2.312584 -14.021957 7.875422 -3.322459 0.000000 -0.000000 -0.000000 0.000000 -0.000000 -0.000000 0.000000 -0.000000 -0.000000 0.000000 -0.000000 -0.000000 -0.000000 -0.000000 -0.000000 0.000000 -0.000000 -0.000000 -0.000000 -0.000000 -0.000000 0.000000 -0.000000 -0.000000 0.000000 -0.000000 -0.000000 7.826464 -20.816938 9.846115 -32.890824 -13.522059 -85.528776 -0.006499 -42.970021 2.304578 -24.773958 -11.189242 -12.592880 -7.471919 1.860689 -7.166912 30.987025 27.310530 -4.510880 -0.000000 -0.000000 -0.000001 -4.707156 11.366753 -75.716533 -0.816419 3.073978 -46.874618 -0.000001 0.000002 -0.000002 1.623357 16.580969 -84.691279 0.018010 0.022016 -72.884860 0.000002 0.000001 0.000001 -6.436872 23.133407 -89.739834 0.012876 0.975918 -51.002993 0.000000 -0.000001 -0.000001 -17.080778 22.136872 -87.150099 0.011715 0.023183 -58.127273 -0.000000 0.000001 -0.000001 -0.000003 0.000002 0.000001 13.927607 27.264835 -23.521155 -40.872805 17.608494 84.597801 0.000023 57.358713 -13.793907 -30.435470 16.295346 8.597894 9.347157 2.810556 -11.364504 16.169090 -43.266021 15.843571 -0.000003 -0.000003 0.000003 17.076786 -0.396551 31.924321 -0.204412 -0.284207 112.811571 -0.000002 0.000000 0.000000 9.205487 -5.035907 102.738073 0.014980 -0.019207 61.018499 0.000000 0.000001 -0.000001 5.569120 -8.935192 107.329094 0.547991 -0.005784 41.263724 -0.000001 -0.000002 -0.000004 6.511243 -17.148242 98.227990 0.007410 -0.015744 43.845733 -0.000001 0.000004 -0.000001 0.000001 -0.000000 -0.000002 -0.000002 -0.000000 0.000000 0.000002 -0.000000 0.000001 -0.000002 -0.000000 -0.000000 -0.000002 -0.000000 -0.000000 -0.000002 -0.000000 0.000000 0.000002 -0.000000 0.000000 -0.000002 -0.000000 -0.000000 -0.000002 -0.000000 -0.000000 -0.000002 -0.000000 0.000000 0.000002 -0.000000 0.000000 0.000000 0.000002 -0.000000 0.000000 0.000002 -0.000000 0.000000 0.000002 -0.000000 
-0.094000 67.648270 -0.013971 5.140482 -15.681486 0.080045 -0.000000 -0.000000 0.000000 -32.155533 3.457486 9.060504 31.405613 4.825854 1.640112 -3.719282 0.569078 -6.095956 -0.000000 0.000000 -0.000000 0.000003 -0.000001 0.000000 -15.114140 -10.904964 -11.404271 32.782237 -6.426728 1.607827 -20.236770 -2.417723 10.597280 -0.000000 -0.000001 -0.000000 0.000001 0.000001 0.000000 22.991201 4.329986 -0.247985 3.696176 1.238988 -0.840537 3.689680 1.310660 -0.839842 -12.779167 1.125771 2.327831 -13.988200 7.897094 -3.333072 0.000001 0.000000 0.000000 0.000001 0.000000 0.000000 0.000001 0.000000 0.000000 0.000001 0.000000 -0.000000 0.000001 -0.000000 -0.000000 0.000001 0.000000 -0.000000 0.000001 -0.000000 -0.000000 0.000001 0.000000 0.000000 0.000001 0.000000 0.000000 7.837306 -20.775646 9.903072 -32.918353 -13.535662 -85.611374 -0.010955 -42.890921 2.308799 -24.740424 -11.348179 -12.573092 -7.471924 1.860689 -7.166904 30.987021 27.310523 -4.510881 -0.000001 -0.000001 -0.000001 -4.707157 11.366754 -75.716526 -0.816416 3.073981 -46.874618 0.000001 -0.000001 -0.000004 1.623352 16.580969 -84.691279 0.018006 0.022014 -72.884860 0.000002 -0.000001 -0.000001 -6.436874 23.133410 -89.739827 0.012872 0.975923 -51.002993 0.000000 0.000001 0.000001 -17.080780 22.136870 -87.150092 0.011717 0.023183 -58.127273 -0.000000 0.000001 0.000001 0.000001 -0.000001 -0.000002 13.932944 27.277038 -23.535256 -40.817173 17.579177 84.610013 0.000055 57.428736 -13.749096 -30.367045 16.393475 8.583027 9.347159 2.810560 -11.364502 16.169088 -43.266025 15.843565 0.000002 -0.000003 0.000002 17.076791 -0.396549 31.924325 -0.204413 -0.284208 112.811578 -0.000001 -0.000001 0.000002 9.205490 -5.035903 102.738073 0.014984 -0.019208 61.018499 -0.000000 -0.000001 -0.000001 5.569119 -8.935195 107.329087 0.547994 -0.005783 41.263720 0.000000 -0.000003 0.000001 6.511244 -17.148240 98.227997 0.007416 -0.015745 43.845740 0.000000 -0.000001 0.000000 0.000002 0.000001 -0.000000 -0.000000 0.000000 -0.000000 0.000001 -0.000000 -0.000000 -0.000000 0.000000 -0.000001 -0.000000 0.000000 -0.000001 -0.000000 0.000000 -0.000000 0.000001 -0.000000 -0.000000 -0.000000 0.000000 -0.000001 -0.000000 0.000000 -0.000001 -0.000000 0.000000 -0.000000 0.000001 -0.000000 -0.000000 -0.000000 -0.000000 0.000000 -0.000000 -0.000000 0.000000 -0.000000 -0.000000 0.000000 
-0.118557 67.658264 -0.029584 5.163623 -15.713470 0.071634 -0.000000 0.000002 -0.000000 -32.133793 3.450956 9.091563 31.307675 4.844837 1.666915 -3.661206 0.569197 -6.144227 0.000000 0.000000 0.000000 -0.000001 0.000000 -0.000000 -15.125947 -10.880742 -11.353496 32.750918 -6.444088 1.610880 -20.192310 -2.411713 10.598133 0.000000 -0.000001 0.000000 -0.000000 0.000002 -0.000000 22.956949 4.323581 -0.257105 3.695777 1.235691 -0.840320 3.689307 1.308802 -0.839714 -12.808457 1.125953 2.346501 -13.954036 7.910787 -3.343161 0.000000 -0.000000 -0.000000 0.000000 -0.000000 -0.000000 0.000000 -0.000000 -0.000000 0.000000 -0.000000 -0.000000 0.000000 -0.000000 -0.000000 0.000000 -0.000000 -0.000000 0.000000 -0.000000 -0.000000 0.000000 -0.000000 -0.000000 0.000000 -0.000000 -0.000000 7.848192 -20.752604 9.962959 -32.925917 -13.539235 -85.675414 -0.013174 -42.834230 2.304271 -24.718723 -11.497570 -12.533897 -7.471921 1.860689 -7.166902 30.987021 27.310523 -4.510881 0.000002 -0.000000 0.000001 -4.707152 11.366755 -75.716526 -0.816420 3.073980 -46.874622 0.000001 0.000002 -0.000002 1.623360 16.580967 -84.691272 0.018004 0.022015 -72.884860 0.000000 0.000001 0.000001 -6.436866 23.133405 -89.739827 0.012875 0.975921 -51.002996 0.000001 0.000000 -0.000002 -17.080771 22.136863 -87.150086 0.011720 0.023186 -58.127273 0.000000 -0.000002 0.000003 0.000001 -0.000001 0.000001 13.938376 27.291313 -23.549534 -40.767135 17.552184 84.629090 0.000167 57.488848 -13.716550 -30.304439 16.486793 8.582576 9.347157 2.810560 -11.364506 16.169090 -43.266025 15.843566 -0.000001 -0.000001 0.000002 17.076788 -0.396552 31.924325 -0.204412 -0.284209 112.811571 -0.000000 0.000002 -0.000001 9.205486 -5.035904 102.738073 0.014984 -0.019207 61.018492 0.000000 -0.000000 -0.000001 5.569119 -8.935195 107.329087 0.547994 -0.005783 41.263720 -0.000001 -0.000001 -0.000002 6.511242 -17.148242 98.227997 0.007415 -0.015746 43.845740 -0.000001 0.000006 -0.000000 -0.000001 0.000002 -0.000002 -0.000002 0.000001 -0.000000 -0.000002 0.000001 -0.000000 -0.000002 0.000001 -0.000000 -0.000002 0.000001 -0.000000 -0.000002 0.000001 -0.000000 -0.000002 0.000001 -0.000000 -0.000002 0.000001 -0.000000 -0.000002 0.000001 -0.000000 -0.000002 0.000001 -0.000000 -0.000002 0.000001 -0.000000 -0.000000 0.000002 -0.000000 -0.000000 0.000002 -0.000000 -0.000000 0.000002 -0.000000 
